<svg xmlns="http://www.w3.org/2000/svg" aria-hidden="true" style="width:0;height:0;position:absolute;overflow:hidden"><defs><symbol id="icon-left-one_1" viewBox="0 0 31 32"><path d="M14.963 11.899c-4.237 4.372-4.237 4.732 0 9.104 1.758 1.848 3.47 3.335 3.741 3.335.316 0 .811-.316 1.127-.676.451-.541.045-1.172-2.434-3.741-1.623-1.713-2.975-3.38-2.975-3.741s1.217-1.848 2.704-3.335c1.487-1.487 2.704-3.02 2.704-3.47 0-1.623-1.713-.766-4.868 2.524z"/></symbol><symbol id="icon-left-two" viewBox="0 0 37 32"><path d="M12.652 10.782c-2.462 2.511-3.791 4.283-3.791 4.972 0 .738 1.378 2.511 3.938 5.12 3.742 3.791 3.938 3.938 4.775 3.102.837-.788.689-.985-2.462-4.185-1.822-1.822-3.298-3.643-3.298-4.037s1.477-2.215 3.298-4.037c2.806-2.806 3.2-3.397 2.609-4.037-.345-.443-.788-.788-.935-.788-.197 0-2.068 1.723-4.135 3.889z"/><path d="M21.268 10.535c-4.775 4.923-4.775 5.563.098 10.535 2.56 2.609 3.84 3.594 4.431 3.397 1.477-.591.788-2.018-2.511-5.366l-3.298-3.348 3.348-3.397c2.215-2.265 3.298-3.692 3.151-4.283-.345-1.822-1.723-1.182-5.218 2.462z"/></symbol><symbol id="icon-right-one" viewBox="0 0 31 32"><path d="M11.268 8.338c-.451.541-.045 1.172 2.434 3.741 1.623 1.713 2.975 3.38 2.975 3.741s-1.217 1.848-2.704 3.335c-1.487 1.487-2.704 3.02-2.704 3.47 0 1.623 1.713.766 4.868-2.524 4.237-4.372 4.237-4.732 0-9.104-1.758-1.848-3.47-3.335-3.741-3.335-.316 0-.811.316-1.127.676z"/></symbol><symbol id="icon-right-two" viewBox="0 0 37 32"><path d="M10.683 7.729c-.837.788-.098 2.068 2.954 5.169l3.298 3.348-3.298 3.348c-3.298 3.348-3.988 4.775-2.511 5.366.591.197 1.871-.788 4.431-3.397 4.874-4.972 4.874-5.612.098-10.535-3.348-3.446-4.234-4.037-4.972-3.298z"/><path d="M19.2 8.172c-.591.64-.197 1.231 2.609 4.037 1.822 1.822 3.298 3.643 3.298 4.037s-1.477 2.215-3.298 4.037c-3.151 3.2-3.298 3.397-2.462 4.185.837.837 1.034.689 4.775-3.102 2.56-2.609 3.938-4.382 3.938-5.12 0-.689-1.329-2.462-3.791-4.972-2.068-2.166-3.938-3.889-4.135-3.889-.148 0-.591.345-.935.788z"/></symbol><symbol id="icon-x-mobile" viewBox="0 0 24 24"><path stroke-linecap="round" stroke-linejoin="round" stroke-width="2" d="M18 6 6 18M6 6l12 12"/></symbol><symbol id="icon-heart" viewBox="0 0 32 32" fill="none"><path stroke="#000" d="M9.9 7.431c-.481.119-.825.356-1.6 1.125-.875.869-.944.994-.644 1.287.281.287.419.225 1.225-.563 1.325-1.3 1.3-1.3 3.994.1 1.081.556 2.056 1.1 2.169 1.2.444.387.456.456.456 2.45v1.781h-.262c-.594 0-1.256-.519-1.45-1.119a6.02 6.02 0 0 1-.162-.85c-.037-.313-.106-.625-.156-.694-.1-.15-2.519-1.15-2.787-1.15-.088 0-.2.037-.256.075-.231.188-2.575 3.225-2.744 3.556-.494.988-.494 2.256.006 3.244.369.731 1.044 1.369 1.769 1.681.594.256 2.037.456 2.287.319.319-.169.287-.675-.044-.806a6.682 6.682 0 0 0-.794-.137c-1.025-.113-1.631-.425-2.125-1.075-.619-.819-.706-2.075-.2-2.919.131-.219 1.875-2.456 2.156-2.756l.15-.169.881.363.887.369.1.613c.063.381.169.744.275.95.25.494.731.975 1.213 1.213.375.181.463.194.975.188.7-.012.863-.012 1.563 0 .512.006.6-.006.975-.188a2.882 2.882 0 0 0 1.2-1.181c.15-.294.244-.662.344-1.294l.044-.306 1.788-.725.506.637c.275.344.563.681.625.738.288.256.738.05.738-.344 0-.162-.137-.369-.694-1.075-.375-.481-.719-.894-.762-.919-.163-.106-.438-.031-1.656.456-.844.338-1.3.556-1.356.644-.05.069-.119.381-.156.694a6.146 6.146 0 0 1-.163.85c-.194.6-.856 1.119-1.444 1.119-.231 0-.269-.019-.306-.156-.019-.081-.025-.875-.012-1.762.019-1.5.031-1.631.156-1.863a1.84 1.84 0 0 1 .319-.425c.181-.175 3.712-2.044 4.163-2.206a1.36 1.36 0 0 1 1.038.044c.219.094 1.319 1.162 4.75 4.594 4.844 4.831 4.631 4.65 4.969 4.306.344-.337.538-.119-4.387-5.037-4.012-4.006-4.594-4.563-4.912-4.706-.438-.206-1.087-.275-1.525-.169-.163.044-1.238.556-2.387 1.15-1.512.781-2.156 1.144-2.356 1.338l-.275.262-.275-.262c-.194-.188-.831-.55-2.263-1.294-1.1-.569-2.131-1.081-2.306-1.138-.319-.112-.912-.138-1.256-.056zM3.112 13.738C-.263 17.107-.182 17.013.156 17.344c.331.337.237.419 3.606-2.95 2.837-2.838 3.112-3.131 3.112-3.313a.435.435 0 0 0-.45-.456c-.188 0-.487.287-3.313 3.113z"/><path stroke="#000" d="M23.563 14.425c-.188.15-.181.369.025.919.419 1.137.006 2.438-.975 3.094-.475.313-.794.413-1.769.531-1.194.156-2.169.462-3.106.988-.619.344-1.144.756-1.431 1.119-.144.181-.281.331-.306.331s-.162-.15-.306-.331c-.3-.381-.906-.85-1.512-1.169-.512-.269-.75-.281-.925-.056-.262.337-.156.506.625.962 1.075.631 1.544 1.275 1.606 2.163.025.394.012.462-.106.581-.069.069-.206.131-.294.131s-.606-.238-1.15-.525c-.537-.288-1.094-.556-1.225-.594-.15-.044-.925-.069-1.963-.069H9.032l-.719.256c-.394.144-.912.313-1.156.375-.944.262-1.987.219-2.994-.125-1.163-.394-2.188-.419-3.319-.081-.656.2-.844.337-.844.619 0 .175.256.456.425.456.063 0 .35-.075.644-.169.45-.144.644-.169 1.306-.169.719-.006.825.006 1.387.194 1.631.544 2.831.512 4.537-.106l.856-.313h3.294l.975.512c.537.288 1.063.55 1.169.594.313.119.719.094 1.075-.075l.331-.15.331.15c.356.169.762.194 1.075.075.106-.044.631-.306 1.169-.594l.975-.512h3.3l.762.281c1.756.65 2.981.688 4.619.144.569-.194.675-.206 1.394-.2.663 0 .856.025 1.306.169.294.094.581.169.644.169.169 0 .425-.281.425-.456 0-.281-.188-.419-.844-.619-1.056-.319-2.219-.313-3.125.019-.744.269-1.113.331-1.938.325-.894-.006-1.106-.05-2.406-.512l-.719-.256h-1.719c-1.038 0-1.813.025-1.962.069-.131.038-.681.306-1.225.594-.538.288-1.056.525-1.144.525-.281 0-.419-.2-.419-.594 0-.719.381-1.413 1.056-1.913.9-.669 2.063-1.106 3.375-1.275 1.262-.163 1.637-.288 2.3-.756.919-.656 1.456-1.725 1.456-2.9 0-.775-.319-1.794-.594-1.9a.552.552 0 0 0-.531.075z"/></symbol><symbol id="icon-heart1" viewBox="0 0 32 32"><path stroke-linejoin="round" stroke-linecap="round" stroke-width="2.909" d="M27.787 6.147a7.345 7.345 0 0 0-5.187-2.15 7.33 7.33 0 0 0-5.187 2.15L16 7.56l-1.413-1.413a7.333 7.333 0 0 0-10.374 0 7.333 7.333 0 0 0 0 10.374L16 28.308l11.787-11.787a7.345 7.345 0 0 0 2.15-5.187 7.33 7.33 0 0 0-2.15-5.187z"/></symbol><symbol id="scroll-to-top_icon" viewBox="0 0 33 32"><path d="M28.889 17.666c.432.411.992.613 1.552.605s1.114-.223 1.536-.647l.032-.032a2.108 2.108 0 0 0-.045-2.96C27.282 9.948 22.521 5.314 17.802.659a.411.411 0 0 0-.042-.05c-.432-.414-.997-.615-1.557-.607s-1.117.225-1.538.65l-.069.072C9.941 5.363 5.272 9.989.628 14.636c-.408.409-.618.936-.626 1.47s.186 1.069.586 1.488l.04.04c.419.416.971.631 1.528.639s1.119-.194 1.552-.605L16.246 5.143l12.645 12.525zm-.531 13.732c.43.409.989.607 1.546.599a2.2 2.2 0 0 0 1.536-.647l.032-.032a2.11 2.11 0 0 0-.043-2.96c-4.586-4.584-9.096-9.324-13.626-13.971-.013-.019-.029-.037-.045-.056-.432-.411-.997-.613-1.557-.605s-1.117.225-1.538.65c-4.496 4.642-8.976 9.302-13.467 13.952l-.034.032a2.11 2.11 0 0 0-.037 2.958l.04.04c.419.416.971.631 1.528.639s1.119-.194 1.552-.605l12-12.515 12.114 12.52z"/></symbol><symbol id="icon-shopping-cart" viewBox="0 0 32 32"><path d="M.72.26C.323.443.16.753.16 1.333c0 .547.152.864.507 1.059.14.077.467.092 2.587.115l2.427.027.579 2.88 1.739 8.672c1.123 5.611 1.167 5.807 1.377 6.24a3.889 3.889 0 0 0 2.47 2.07l.027.006c.4.103.62.105 7.515.105s7.115-.003 7.515-.105a3.915 3.915 0 0 0 2.766-2.828l.006-.027c.067-.288 1.657-8.601 2.137-11.173.14-.745.016-1.124-.453-1.387l-.237-.133-22.133-.053-.593-2.945c-.325-1.62-.621-3.015-.657-3.1a1.052 1.052 0 0 0-.541-.509L7.191.244C7.02.172 6.584.161 3.964.163 1.14.164.921.171.723.262zm28.469 8.953c.036.063-1.819 9.719-1.917 9.984-.12.323-.444.659-.78.809l-.279.127H12.56l-.279-.127a1.596 1.596 0 0 1-.776-.799l-.004-.01c-.085-.227-2.008-9.735-2.008-9.929 0-.091.471-.095 9.837-.095 5.409 0 9.847.019 9.859.04zM11.303 25.431c-1.145.299-1.979 1.404-1.967 2.607.013 1.276.984 2.391 2.251 2.585a2.563 2.563 0 0 0 2.284-.752c.432-.432.664-.88.752-1.457A2.66 2.66 0 0 0 12 25.341c-.191 0-.504.041-.697.091zm14.666 0c-1.145.299-1.979 1.404-1.967 2.607.013 1.276.984 2.391 2.251 2.585a2.563 2.563 0 0 0 2.284-.752c.432-.432.664-.88.752-1.457a2.66 2.66 0 0 0-2.623-3.073c-.191 0-.504.041-.697.091z"/></symbol><symbol id="icon-hamburger" viewBox="0 0 32 32"><path d="M3.717 7.038c-.456.089-.693.417-.693.962 0 .616.277.924.885.985.182.019 5.755.027 12.384.018 11.943-.016 12.055-.017 12.235-.123.364-.214.528-.637.436-1.126a.866.866 0 0 0-.432-.632l-.004-.002c-.18-.106-.284-.107-12.395-.114-6.717-.004-12.305.01-12.416.032zm0 5.333c-.456.089-.693.418-.693.962 0 .616.277.924.885.986.182.018 5.755.026 12.384.017 11.943-.016 12.055-.017 12.235-.123a.86.86 0 0 0 .435-.628l.001-.005c.092-.49-.072-.912-.436-1.127-.18-.105-.284-.106-12.395-.114-6.717-.004-12.305.01-12.416.032zm0 5.334c-.456.089-.693.417-.693.962 0 .616.277.924.885.985.182.018 5.755.026 12.384.017 11.943-.016 12.055-.017 12.235-.122.364-.215.528-.637.436-1.127a.862.862 0 0 0-.432-.631l-.004-.002c-.18-.106-.284-.107-12.395-.115-6.717-.004-12.305.011-12.416.033zm0 5.333c-.456.089-.693.417-.693.962 0 .616.277.924.885.985.182.019 5.755.027 12.384.018 11.943-.016 12.055-.017 12.235-.123.364-.214.528-.637.436-1.126a.866.866 0 0 0-.432-.632l-.004-.002c-.18-.106-.284-.107-12.395-.114-6.717-.004-12.305.01-12.416.032z"/></symbol><symbol id="icon-x-mob" viewBox="0 0 32 32"><path fill="none" stroke="#f8f8f8" style="stroke:var(--color1,#f8f8f8)" stroke-linejoin="round" stroke-linecap="round" stroke-width="3" d="M24 8 8 24M8 8l16 16"/></symbol><symbol id="icon-search-input" viewBox="0 0 32 32"><path d="M28.946 27.054 24 22.147a11.926 11.926 0 0 0 2.642-7.512c0-6.627-5.373-12-12-12s-12 5.373-12 12 5.373 12 12 12c2.85 0 5.468-.994 7.526-2.653l-.023.018 4.907 4.907a1.333 1.333 0 0 0 1.894 0 1.33 1.33 0 0 0-.001-1.853zM14.667 24a9.333 9.333 0 1 1 0-18.666 9.333 9.333 0 1 1 0 18.666z"/></symbol><symbol id="icon-x-filters" viewBox="0 0 32 32"><path fill="none" stroke="#9bb537" style="stroke:var(--color1,#9bb537)" stroke-linejoin="round" stroke-linecap="round" stroke-width="3" d="M24 8 8 24M8 8l16 16"/></symbol><symbol id="icon-shopping-cart-03" viewBox="0 0 24 24"><path fill="#fff" stroke-linecap="round" stroke-linejoin="round" stroke-width="1.5" d="M5 14h13.136c1.013 0 1.519 0 1.922-.189a2 2 0 0 0 .858-.768c.232-.38.288-.883.4-1.89l.585-5.265c.034-.307.051-.461.002-.58a.498.498 0 0 0-.22-.246C21.57 5 21.416 5 21.106 5H4.5M2 2h1.248c.265 0 .397 0 .5.05a.5.5 0 0 1 .217.203c.057.1.065.232.081.496l.906 14.5c.016.264.025.396.081.496.05.088.125.159.217.204.104.05.236.05.5.05h13.248M7.5 21.5h.01m8.99 0h.01M8 21.5a.5.5 0 1 1-1 0 .5.5 0 0 1 1 0zm9 0a.5.5 0 1 1-1 0 .5.5 0 0 1 1 0z"/></symbol><symbol id="icon-x" viewBox="0 0 24 24" fill="none"><path stroke-linecap="round" stroke-linejoin="round" stroke-width="2" d="M18 6 6 18M6 6l12 12"/></symbol><symbol id="icon-star" viewBox="0 0 24 24"><path d="M10.37 2.446c.513-1.579 2.748-1.579 3.261 0l1.449 4.459a1.715 1.715 0 0 0 1.63 1.185h4.688c1.661 0 2.351 2.125 1.008 3.101l-3.793 2.756a1.715 1.715 0 0 0-.623 1.917l1.449 4.459c.513 1.579-1.294 2.893-2.638 1.917l-3.793-2.756a1.716 1.716 0 0 0-2.015 0L7.2 22.24c-1.344.976-3.151-.337-2.638-1.917l1.449-4.459a1.716 1.716 0 0 0-.623-1.917l-3.793-2.755C.251 10.216.942 8.091 2.603 8.091h4.688c.743 0 1.401-.478 1.63-1.185l1.449-4.459z"/></symbol></defs></svg>