<svg xmlns="http://www.w3.org/2000/svg" aria-hidden="true" style="position:absolute;width:0;height:0;overflow:hidden">
  <defs>
  <symbol id="icon-left-one_1" viewBox="0 0 31 32">
<path d="M14.963 11.899c-4.237 4.372-4.237 4.732 0 9.104 1.758 1.848 3.47 3.335 3.741 3.335 0.316 0 0.811-0.316 1.127-0.676 0.451-0.541 0.045-1.172-2.434-3.741-1.623-1.713-2.975-3.38-2.975-3.741s1.217-1.848 2.704-3.335c1.487-1.487 2.704-3.020 2.704-3.47 0-1.623-1.713-0.766-4.868 2.524z"></path>
</symbol>
<symbol id="icon-left-two" viewBox="0 0 37 32">
<path d="M12.652 10.782c-2.462 2.511-3.791 4.283-3.791 4.972 0 0.738 1.378 2.511 3.938 5.12 3.742 3.791 3.938 3.938 4.775 3.102 0.837-0.788 0.689-0.985-2.462-4.185-1.822-1.822-3.298-3.643-3.298-4.037s1.477-2.215 3.298-4.037c2.806-2.806 3.2-3.397 2.609-4.037-0.345-0.443-0.788-0.788-0.935-0.788-0.197 0-2.068 1.723-4.135 3.889z"></path>
<path d="M21.268 10.535c-4.775 4.923-4.775 5.563 0.098 10.535 2.56 2.609 3.84 3.594 4.431 3.397 1.477-0.591 0.788-2.018-2.511-5.366l-3.298-3.348 3.348-3.397c2.215-2.265 3.298-3.692 3.151-4.283-0.345-1.822-1.723-1.182-5.218 2.462z"></path>
</symbol>
<symbol id="icon-right-one" viewBox="0 0 31 32">
<path d="M11.268 8.338c-0.451 0.541-0.045 1.172 2.434 3.741 1.623 1.713 2.975 3.38 2.975 3.741s-1.217 1.848-2.704 3.335c-1.487 1.487-2.704 3.020-2.704 3.47 0 1.623 1.713 0.766 4.868-2.524 4.237-4.372 4.237-4.732 0-9.104-1.758-1.848-3.47-3.335-3.741-3.335-0.316 0-0.811 0.316-1.127 0.676z"></path>
</symbol>
<symbol id="icon-right-two" viewBox="0 0 37 32">
<path d="M10.683 7.729c-0.837 0.788-0.098 2.068 2.954 5.169l3.298 3.348-3.298 3.348c-3.298 3.348-3.988 4.775-2.511 5.366 0.591 0.197 1.871-0.788 4.431-3.397 4.874-4.972 4.874-5.612 0.098-10.535-3.348-3.446-4.234-4.037-4.972-3.298z"></path>
<path d="M19.2 8.172c-0.591 0.64-0.197 1.231 2.609 4.037 1.822 1.822 3.298 3.643 3.298 4.037s-1.477 2.215-3.298 4.037c-3.151 3.2-3.298 3.397-2.462 4.185 0.837 0.837 1.034 0.689 4.775-3.102 2.56-2.609 3.938-4.382 3.938-5.12 0-0.689-1.329-2.462-3.791-4.972-2.068-2.166-3.938-3.889-4.135-3.889-0.148 0-0.591 0.345-0.935 0.788z"></path>
</symbol>
 <symbol id="icon-x-mobile" viewBox="0 0 24 24" >
      <path stroke-linecap="round" stroke-linejoin="round" stroke-width="2" d="M18 6 6 18M6 6l12 12"/>
    </symbol>
    <symbol id="icon-heart" viewBox="0 0 32 32" fill="none">
      <path stroke="black" d="M9.9 7.431c-0.481 0.119-0.825 0.356-1.6 1.125-0.875 0.869-0.944 0.994-0.644 1.287 0.281 0.287 0.419 0.225 1.225-0.563 1.325-1.3 1.3-1.3 3.994 0.1 1.081 0.556 2.056 1.1 2.169 1.2 0.444 0.387 0.456 0.456 0.456 2.45v1.781h-0.262c-0.594 0-1.256-0.519-1.45-1.119-0.050-0.156-0.125-0.544-0.162-0.85-0.037-0.313-0.106-0.625-0.156-0.694-0.1-0.15-2.519-1.15-2.787-1.15-0.088 0-0.2 0.037-0.256 0.075-0.231 0.188-2.575 3.225-2.744 3.556-0.494 0.988-0.494 2.256 0.006 3.244 0.369 0.731 1.044 1.369 1.769 1.681 0.594 0.256 2.037 0.456 2.287 0.319 0.319-0.169 0.287-0.675-0.044-0.806-0.094-0.031-0.45-0.094-0.794-0.137-1.025-0.113-1.631-0.425-2.125-1.075-0.619-0.819-0.706-2.075-0.2-2.919 0.131-0.219 1.875-2.456 2.156-2.756l0.15-0.169 0.881 0.363 0.887 0.369 0.1 0.613c0.063 0.381 0.169 0.744 0.275 0.95 0.25 0.494 0.731 0.975 1.213 1.213 0.375 0.181 0.463 0.194 0.975 0.188 0.7-0.012 0.863-0.012 1.563 0 0.512 0.006 0.6-0.006 0.975-0.188 0.475-0.231 0.962-0.713 1.2-1.181 0.15-0.294 0.244-0.662 0.344-1.294l0.044-0.306 1.788-0.725 0.506 0.637c0.275 0.344 0.563 0.681 0.625 0.738 0.288 0.256 0.738 0.050 0.738-0.344 0-0.162-0.137-0.369-0.694-1.075-0.375-0.481-0.719-0.894-0.762-0.919-0.163-0.106-0.438-0.031-1.656 0.456-0.844 0.338-1.3 0.556-1.356 0.644-0.050 0.069-0.119 0.381-0.156 0.694-0.038 0.306-0.113 0.694-0.163 0.85-0.194 0.6-0.856 1.119-1.444 1.119-0.231 0-0.269-0.019-0.306-0.156-0.019-0.081-0.025-0.875-0.012-1.762 0.019-1.5 0.031-1.631 0.156-1.863 0.075-0.137 0.212-0.331 0.319-0.425 0.181-0.175 3.712-2.044 4.163-2.206 0.337-0.125 0.706-0.106 1.038 0.044 0.219 0.094 1.319 1.162 4.75 4.594 4.844 4.831 4.631 4.65 4.969 4.306 0.344-0.337 0.538-0.119-4.387-5.037-4.012-4.006-4.594-4.563-4.912-4.706-0.438-0.206-1.087-0.275-1.525-0.169-0.163 0.044-1.238 0.556-2.387 1.15-1.512 0.781-2.156 1.144-2.356 1.338l-0.275 0.262-0.275-0.262c-0.194-0.188-0.831-0.55-2.263-1.294-1.1-0.569-2.131-1.081-2.306-1.138-0.319-0.112-0.912-0.138-1.256-0.056z"></path>
      <path stroke="black" d="M3.112 13.738c-3.375 3.369-3.294 3.275-2.956 3.606 0.331 0.337 0.237 0.419 3.606-2.95 2.837-2.838 3.112-3.131 3.112-3.313 0-0.269-0.188-0.456-0.45-0.456-0.188 0-0.487 0.287-3.313 3.113z"></path>
      <path stroke="black" d="M23.563 14.425c-0.188 0.15-0.181 0.369 0.025 0.919 0.419 1.137 0.006 2.438-0.975 3.094-0.475 0.313-0.794 0.413-1.769 0.531-1.194 0.156-2.169 0.462-3.106 0.988-0.619 0.344-1.144 0.756-1.431 1.119-0.144 0.181-0.281 0.331-0.306 0.331s-0.162-0.15-0.306-0.331c-0.3-0.381-0.906-0.85-1.512-1.169-0.512-0.269-0.75-0.281-0.925-0.056-0.262 0.337-0.156 0.506 0.625 0.962 1.075 0.631 1.544 1.275 1.606 2.163 0.025 0.394 0.012 0.462-0.106 0.581-0.069 0.069-0.206 0.131-0.294 0.131s-0.606-0.238-1.15-0.525c-0.537-0.288-1.094-0.556-1.225-0.594-0.15-0.044-0.925-0.069-1.963-0.069h-1.719l-0.719 0.256c-0.394 0.144-0.912 0.313-1.156 0.375-0.944 0.262-1.987 0.219-2.994-0.125-1.163-0.394-2.188-0.419-3.319-0.081-0.656 0.2-0.844 0.337-0.844 0.619 0 0.175 0.256 0.456 0.425 0.456 0.063 0 0.35-0.075 0.644-0.169 0.45-0.144 0.644-0.169 1.306-0.169 0.719-0.006 0.825 0.006 1.387 0.194 1.631 0.544 2.831 0.512 4.537-0.106l0.856-0.313h3.294l0.975 0.512c0.537 0.288 1.063 0.55 1.169 0.594 0.313 0.119 0.719 0.094 1.075-0.075l0.331-0.15 0.331 0.15c0.356 0.169 0.762 0.194 1.075 0.075 0.106-0.044 0.631-0.306 1.169-0.594l0.975-0.512h3.3l0.762 0.281c1.756 0.65 2.981 0.688 4.619 0.144 0.569-0.194 0.675-0.206 1.394-0.2 0.663 0 0.856 0.025 1.306 0.169 0.294 0.094 0.581 0.169 0.644 0.169 0.169 0 0.425-0.281 0.425-0.456 0-0.281-0.188-0.419-0.844-0.619-1.056-0.319-2.219-0.313-3.125 0.019-0.744 0.269-1.113 0.331-1.938 0.325-0.894-0.006-1.106-0.050-2.406-0.512l-0.719-0.256h-1.719c-1.038 0-1.813 0.025-1.962 0.069-0.131 0.038-0.681 0.306-1.225 0.594-0.538 0.288-1.056 0.525-1.144 0.525-0.281 0-0.419-0.2-0.419-0.594 0-0.719 0.381-1.413 1.056-1.913 0.9-0.669 2.063-1.106 3.375-1.275 1.262-0.163 1.637-0.288 2.3-0.756 0.919-0.656 1.456-1.725 1.456-2.9 0-0.775-0.319-1.794-0.594-1.9-0.188-0.069-0.387-0.037-0.531 0.075z"></path>
    </symbol>
     <symbol id="scroll-to-top_icon" viewBox="0 0 33 32">
      <path d="M28.889 17.666c0.432 0.411 0.992 0.613 1.552 0.605s1.114-0.223 1.536-0.647l0.032-0.032c0.398-0.419 0.592-0.955 0.584-1.488s-0.218-1.064-0.629-1.472c-4.682-4.684-9.443-9.318-14.162-13.973-0.013-0.019-0.027-0.034-0.042-0.050-0.432-0.414-0.997-0.615-1.557-0.607s-1.117 0.225-1.538 0.65l-0.069 0.072c-4.655 4.639-9.324 9.265-13.968 13.912-0.408 0.409-0.618 0.936-0.626 1.47s0.186 1.069 0.586 1.488l0.040 0.040c0.419 0.416 0.971 0.631 1.528 0.639s1.119-0.194 1.552-0.605l12.538-12.525 12.645 12.525zM28.358 31.398c0.43 0.409 0.989 0.607 1.546 0.599 0.56-0.008 1.114-0.223 1.536-0.647l0.032-0.032c0.398-0.416 0.592-0.955 0.586-1.488-0.008-0.533-0.218-1.066-0.629-1.472-4.586-4.584-9.096-9.324-13.626-13.971-0.013-0.019-0.029-0.037-0.045-0.056-0.432-0.411-0.997-0.613-1.557-0.605s-1.117 0.225-1.538 0.65c-4.496 4.642-8.976 9.302-13.467 13.952l-0.034 0.032c-0.408 0.406-0.615 0.936-0.623 1.47s0.186 1.069 0.586 1.488l0.040 0.040c0.419 0.416 0.971 0.631 1.528 0.639s1.119-0.194 1.552-0.605l12-12.515 12.114 12.52z"></path>
    </symbol>
    <symbol id="icon-shopping-cart" viewBox="0 0 32 32">
<path d="M0.72 0.26c-0.397 0.183-0.56 0.493-0.56 1.073 0 0.547 0.152 0.864 0.507 1.059 0.14 0.077 0.467 0.092 2.587 0.115l2.427 0.027 0.579 2.88 1.739 8.672c1.123 5.611 1.167 5.807 1.377 6.24 0.492 1.017 1.386 1.773 2.47 2.070l0.027 0.006c0.4 0.103 0.62 0.105 7.515 0.105s7.115-0.003 7.515-0.105c1.376-0.382 2.43-1.464 2.766-2.828l0.006-0.027c0.067-0.288 1.657-8.601 2.137-11.173 0.14-0.745 0.016-1.124-0.453-1.387l-0.237-0.133-22.133-0.053-0.593-2.945c-0.325-1.62-0.621-3.015-0.657-3.1-0.115-0.232-0.306-0.412-0.541-0.509l-0.007-0.003c-0.171-0.072-0.607-0.083-3.227-0.081-2.824 0.001-3.043 0.008-3.241 0.099zM29.189 9.213c0.036 0.063-1.819 9.719-1.917 9.984-0.12 0.323-0.444 0.659-0.78 0.809l-0.279 0.127h-13.653l-0.279-0.127c-0.351-0.169-0.624-0.451-0.776-0.799l-0.004-0.010c-0.085-0.227-2.008-9.735-2.008-9.929 0-0.091 0.471-0.095 9.837-0.095 5.409 0 9.847 0.019 9.859 0.040zM11.303 25.431c-1.145 0.299-1.979 1.404-1.967 2.607 0.013 1.276 0.984 2.391 2.251 2.585 0.871 0.133 1.659-0.125 2.284-0.752 0.432-0.432 0.664-0.88 0.752-1.457 0.021-0.124 0.032-0.267 0.032-0.413 0-1.467-1.188-2.657-2.655-2.66h-0c-0.191 0-0.504 0.041-0.697 0.091zM25.969 25.431c-1.145 0.299-1.979 1.404-1.967 2.607 0.013 1.276 0.984 2.391 2.251 2.585 0.871 0.133 1.659-0.125 2.284-0.752 0.432-0.432 0.664-0.88 0.752-1.457 0.021-0.124 0.032-0.267 0.032-0.413 0-1.467-1.188-2.657-2.655-2.66h-0c-0.191 0-0.504 0.041-0.697 0.091z"></path>
</symbol>
<symbol id="icon-hamburger" viewBox="0 0 32 32">
<path d="M3.717 7.038c-0.456 0.089-0.693 0.417-0.693 0.962 0 0.616 0.277 0.924 0.885 0.985 0.182 0.019 5.755 0.027 12.384 0.018 11.943-0.016 12.055-0.017 12.235-0.123 0.364-0.214 0.528-0.637 0.436-1.126-0.040-0.274-0.203-0.503-0.432-0.632l-0.004-0.002c-0.18-0.106-0.284-0.107-12.395-0.114-6.717-0.004-12.305 0.010-12.416 0.032zM3.717 12.371c-0.456 0.089-0.693 0.418-0.693 0.962 0 0.616 0.277 0.924 0.885 0.986 0.182 0.018 5.755 0.026 12.384 0.017 11.943-0.016 12.055-0.017 12.235-0.123 0.233-0.13 0.396-0.359 0.435-0.628l0.001-0.005c0.092-0.49-0.072-0.912-0.436-1.127-0.18-0.105-0.284-0.106-12.395-0.114-6.717-0.004-12.305 0.010-12.416 0.032zM3.717 17.705c-0.456 0.089-0.693 0.417-0.693 0.962 0 0.616 0.277 0.924 0.885 0.985 0.182 0.018 5.755 0.026 12.384 0.017 11.943-0.016 12.055-0.017 12.235-0.122 0.364-0.215 0.528-0.637 0.436-1.127-0.040-0.274-0.203-0.503-0.432-0.631l-0.004-0.002c-0.18-0.106-0.284-0.107-12.395-0.115-6.717-0.004-12.305 0.011-12.416 0.033zM3.717 23.038c-0.456 0.089-0.693 0.417-0.693 0.962 0 0.616 0.277 0.924 0.885 0.985 0.182 0.019 5.755 0.027 12.384 0.018 11.943-0.016 12.055-0.017 12.235-0.123 0.364-0.214 0.528-0.637 0.436-1.126-0.040-0.274-0.203-0.503-0.432-0.632l-0.004-0.002c-0.18-0.106-0.284-0.107-12.395-0.114-6.717-0.004-12.305 0.010-12.416 0.032z"></path>
</symbol>
<symbol id="icon-x-mob" viewBox="0 0 32 32">
<path fill="none" stroke="#f8f8f8" style="stroke: var(--color1, #f8f8f8)" stroke-linejoin="round" stroke-linecap="round" stroke-miterlimit="4" stroke-width="3" d="M24 8l-16 16"></path>
<path fill="none" stroke="#f8f8f8" style="stroke: var(--color1, #f8f8f8)" stroke-linejoin="round" stroke-linecap="round" stroke-miterlimit="4" stroke-width="3" d="M8 8l16 16"></path>

</symbol>
<symbol id="icon-search-input" viewBox="0 0 32 32">
<path d="M28.946 27.054l-4.946-4.907c1.646-2.037 2.642-4.658 2.642-7.512 0-6.627-5.373-12-12-12s-12 5.373-12 12c0 6.627 5.373 12 12 12 2.85 0 5.468-0.994 7.526-2.653l-0.023 0.018 4.907 4.907c0.242 0.244 0.577 0.394 0.947 0.394s0.705-0.151 0.947-0.394l0-0c0.232-0.24 0.374-0.566 0.374-0.926s-0.143-0.687-0.375-0.927l0 0zM14.667 24c-5.155 0-9.333-4.179-9.333-9.333s4.179-9.333 9.333-9.333v0c5.155 0 9.333 4.179 9.333 9.333s-4.179 9.333-9.333 9.333v0z"></path>
</symbol>
<symbol id="icon-x-filters" viewBox="0 0 32 32">
<path fill="none" stroke="#9bb537" style="stroke: var(--color1, #9bb537)" stroke-linejoin="round" stroke-linecap="round" stroke-miterlimit="4" stroke-width="3" d="M24 8l-16 16M8 8l16 16"></path>
</symbol>
 <symbol id="icon-shopping-cart-03" viewBox="0 0 24 24">
      <path fill="#fff" stroke-linecap="round" stroke-linejoin="round" stroke-width="1.5" d="M5 14h13.136c1.013 0 1.519 0 1.922-.189a2 2 0 0 0 .858-.768c.232-.38.288-.883.4-1.89l.585-5.265c.034-.307.051-.461.002-.58a.498.498 0 0 0-.22-.246C21.57 5 21.416 5 21.106 5H4.5M2 2h1.248c.265 0 .397 0 .5.05a.5.5 0 0 1 .217.203c.057.1.065.232.081.496l.906 14.5c.016.264.025.396.081.496.05.088.125.159.217.204.104.05.236.05.5.05h13.248M7.5 21.5h.01m8.99 0h.01M8 21.5a.5.5 0 1 1-1 0 .5.5 0 0 1 1 0zm9 0a.5.5 0 1 1-1 0 .5.5 0 0 1 1 0z"/>
    </symbol>
  </defs>
</svg>
