<svg xmlns="http://www.w3.org/2000/svg" aria-hidden="true" style="position:absolute;width:0;height:0;overflow:hidden">
  <defs>
    <!-- MOBILE MENU -->
    <symbol id="icon-align-justify" viewBox="0 0 23 24" >
      <path stroke-linecap="round" stroke-linejoin="round" stroke-width="1.454" d="M20.364 10.061H2.909M20.364 6.182H2.909M20.364 13.939H2.909M20.364 17.818H2.909"/>
    </symbol>
    <!-- ARROW DOWN -->
    <symbol id="icon-chevron-down" viewBox="0 0 24 24">
      <path stroke-linecap="round" stroke-linejoin="round" stroke-width="2.667" d="m6 9 6 6 6-6"/>
    </symbol>
    <!-- SEARCH -->
    <symbol id="icon-search-3-1" viewBox="0 0 24 24" >
      <path  d="M21.71 20.29 18 16.61a9.005 9.005 0 0 0-1.014-12.334A9 9 0 1 0 16.61 18l3.68 3.68a1.007 1.007 0 0 0 .71.296.998.998 0 0 0 .71-.296 1.003 1.003 0 0 0 0-1.39zM11 18a7.002 7.002 0 0 1-6.865-8.365 7.003 7.003 0 0 1 9.544-5.102A7 7 0 0 1 11 18z"/>
    </symbol>
    <!-- SEARCH-ARROW -->
    <symbol id="search-arrow" viewBox="0 0 24 24" >
      <path  d="M5.293 9.707l6 6c0.391 0.391 1.024 0.391 1.414 0l6-6c0.391-0.391 0.391-1.024 0-1.414s-1.024-0.391-1.414 0l-5.293 5.293-5.293-5.293c-0.391-0.391-1.024-0.391-1.414 0s-0.391 1.024 0 1.414z"></path>
    </symbol>
    <!-- SHOPPING ICON -->
    <symbol id="icon-shopping-cart-03" viewBox="0 0 24 24">
      <path stroke-linecap="round" stroke-linejoin="round" stroke-width="1.5" d="M5 14h13.136c1.013 0 1.519 0 1.922-.189a2 2 0 0 0 .858-.768c.232-.38.288-.883.4-1.89l.585-5.265c.034-.307.051-.461.002-.58a.498.498 0 0 0-.22-.246C21.57 5 21.416 5 21.106 5H4.5M2 2h1.248c.265 0 .397 0 .5.05a.5.5 0 0 1 .217.203c.057.1.065.232.081.496l.906 14.5c.016.264.025.396.081.496.05.088.125.159.217.204.104.05.236.05.5.05h13.248M7.5 21.5h.01m8.99 0h.01M8 21.5a.5.5 0 1 1-1 0 .5.5 0 0 1 1 0zm9 0a.5.5 0 1 1-1 0 .5.5 0 0 1 1 0z"/>
    </symbol>
    <!-- STAR ICON -->
    <symbol id="icon-Star-1" viewBox="0 0 24 24">
      <path d="M10.37 2.446c.513-1.579 2.748-1.579 3.261 0l1.449 4.459a1.715 1.715 0 0 0 1.63 1.185h4.688c1.661 0 2.351 2.125 1.008 3.101l-3.793 2.756a1.715 1.715 0 0 0-.623 1.917l1.449 4.459c.513 1.579-1.294 2.893-2.638 1.917l-3.793-2.756a1.716 1.716 0 0 0-2.015 0L7.2 22.24c-1.344.976-3.151-.337-2.638-1.917l1.449-4.459a1.716 1.716 0 0 0-.623-1.917l-3.793-2.755C.251 10.216.942 8.091 2.603 8.091h4.688c.743 0 1.401-.478 1.63-1.185l1.449-4.459z"  />
    </symbol>
        <!-- HEART ICON -->
    
    <!-- CLOSE ICON FOR MOBILE-->
    <symbol id="icon-x-mobile" viewBox="0 0 24 24" >
      <path stroke-linecap="round" stroke-linejoin="round" stroke-width="2" d="M18 6 6 18M6 6l12 12"/>
    </symbol>
    <!-- CLOSE ICON -->
    <symbol id="icon-x" viewBox="0 0 24 24" fill="none">
      <path stroke-linecap="round" stroke-linejoin="round" stroke-width="2" d="M18 6 6 18M6 6l12 12"/>
    </symbol>
    <!-- DOUBLE ARROW RIGHT -->
    <symbol id="icon-chevrons-right" viewBox="0 0 24 24">
      <path d="m13.707 17.707 5-5a.999.999 0 0 0 0-1.414l-5-5a.999.999 0 1 0-1.414 1.414L16.586 12l-4.293 4.293a.999.999 0 1 0 1.414 1.414zm-7 0 5-5a.999.999 0 0 0 0-1.414l-5-5a.999.999 0 1 0-1.414 1.414L9.586 12l-4.293 4.293a.999.999 0 1 0 1.414 1.414z"/>
    </symbol>
    <!-- SINGLE ARROW RIGHT -->
    <symbol id="icon-chevron-right" viewBox="0 0 24 24">
      <path d="m9.707 18.707 6-6a.999.999 0 0 0 0-1.414l-6-6a.999.999 0 1 0-1.414 1.414L13.586 12l-5.293 5.293a.999.999 0 1 0 1.414 1.414z"/>
    </symbol>
     <!-- DOUBLE ARROW LEFT -->
    <symbol id="icon-chevrons-left" viewBox="0 0 24 24">
      <path d="M11.707 16.293 7.414 12l4.293-4.293a.999.999 0 1 0-1.414-1.414l-5 5a.999.999 0 0 0 0 1.414l5 5a.999.999 0 1 0 1.414-1.414zm7 0L14.414 12l4.293-4.293a.999.999 0 1 0-1.414-1.414l-5 5a.999.999 0 0 0 0 1.414l5 5a.999.999 0 1 0 1.414-1.414z"/>
    </symbol>
     <!-- SINGLE ARROW LEFT -->
    <symbol id="icon-chevron-left" viewBox="0 0 24 24">
      <path d="M15.707 17.293 10.414 12l5.293-5.293a.999.999 0 1 0-1.414-1.414l-6 6a.999.999 0 0 0 0 1.414l6 6a.999.999 0 1 0 1.414-1.414z"/>
    </symbol>
    <!-- COOK LOGO -->
    <symbol id="icon-Logo" viewBox="0 0 32 32">
    <symbol id="icon-elements" viewBox="0 0 37 32">
        <path fill="#9bb537" style="fill: var(--color1, #9bb537)" d="M7.325 12.723h23.133v17.735h-23.133v-17.735z"></path>
        <path fill="#9bb537" style="fill: var(--color1, #9bb537)" d="M16.578 11.373c0 4.578-3.711 8.289-8.289 8.289s-8.289-3.711-8.289-8.289c0-4.578 3.711-8.289 8.289-8.289s8.289 3.711 8.289 8.289z"></path>
        <path fill="#9bb537" style="fill: var(--color1, #9bb537)" d="M26.988 8.289c0 4.578-3.711 8.289-8.289 8.289s-8.289-3.711-8.289-8.289c0-4.578 3.711-8.289 8.289-8.289s8.289 3.711 8.289 8.289z"></path>
        <path fill="#9bb537" style="fill: var(--color1, #9bb537)" d="M37.398 11.373c0 4.578-3.711 8.289-8.289 8.289s-8.289-3.711-8.289-8.289c0-4.578 3.711-8.289 8.289-8.289s8.289 3.711 8.289 8.289z"></path>
        <path fill="#f8f8f8" style="fill: var(--color2, #f8f8f8)" d="M7.325 29.301h23.133v2.036c0 0.366-0.324 0.663-0.723 0.663h-21.687c-0.399 0-0.723-0.297-0.723-0.663v-2.036z"></path>
        <path fill="#f8f8f8" style="fill: var(--color2, #f8f8f8)" d="M14.265 10.36c0-0.611 0.432-1.107 0.964-1.107v0c0.532 0 0.964 0.495 0.964 1.107v5.112c0 0.611-0.432 1.107-0.964 1.107v0c-0.532 0-0.964-0.495-0.964-1.107v-5.112z"></path>
        <path fill="#f8f8f8" style="fill: var(--color2, #f8f8f8)" d="M17.349 10.36c0-0.611 0.604-1.107 1.349-1.107v0c0.745 0 1.349 0.495 1.349 1.107v5.112c0 0.611-0.604 1.107-1.349 1.107v0c-0.745 0-1.349-0.495-1.349-1.107v-5.112z"></path>
        <path fill="#f8f8f8" style="fill: var(--color2, #f8f8f8)" d="M21.205 10.36c0-0.611 0.432-1.107 0.964-1.107v0c0.532 0 0.964 0.495 0.964 1.107v5.112c0 0.611-0.432 1.107-0.964 1.107v0c-0.532 0-0.964-0.495-0.964-1.107v-5.112z"></path>
        <path fill="#050505" style="fill: var(--color3, #050505)" d="M28.184 3.131c0.289-0.030 0.581-0.045 0.878-0.045 3.714 0 6.861 2.413 7.938 5.746-0.289 0.030-0.581 0.045-0.878 0.045-3.714 0-6.861-2.413-7.938-5.746z"></path>
    </symbol>
    <!-- Github -->
    <symbol id="icon-github" viewBox="0 0 32 32">
            <path d="M16 0.395c-8.836 0-16 7.163-16 16 0 7.069 4.585 13.067 10.942 15.182 0.8 0.148 1.094-0.347 1.094-0.77 0-0.381-0.015-1.642-0.022-2.979-4.452 0.968-5.391-1.888-5.391-1.888-0.728-1.849-1.776-2.341-1.776-2.341-1.452-0.993 0.11-0.973 0.11-0.973 1.606 0.113 2.452 1.649 2.452 1.649 1.427 2.446 3.743 1.739 4.656 1.33 0.143-1.034 0.558-1.74 1.016-2.14-3.554-0.404-7.29-1.777-7.29-7.907 0-1.747 0.625-3.174 1.649-4.295-0.166-0.403-0.714-2.030 0.155-4.234 0 0 1.344-0.43 4.401 1.64 1.276-0.355 2.645-0.532 4.005-0.539 1.359 0.006 2.729 0.184 4.008 0.539 3.054-2.070 4.395-1.64 4.395-1.64 0.871 2.204 0.323 3.831 0.157 4.234 1.026 1.12 1.647 2.548 1.647 4.295 0 6.145-3.743 7.498-7.306 7.895 0.574 0.497 1.085 1.47 1.085 2.963 0 2.141-0.019 3.864-0.019 4.391 0 0.426 0.288 0.925 1.099 0.768 6.354-2.118 10.933-8.113 10.933-15.18 0-8.837-7.164-16-16-16z"></path>
    </symbol>
    <!-- FOOTER HEART -->
    <symbol id="icon-heart" viewBox="0 0 32 32" fill="none">
      <path stroke="black" d="M9.9 7.431c-0.481 0.119-0.825 0.356-1.6 1.125-0.875 0.869-0.944 0.994-0.644 1.287 0.281 0.287 0.419 0.225 1.225-0.563 1.325-1.3 1.3-1.3 3.994 0.1 1.081 0.556 2.056 1.1 2.169 1.2 0.444 0.387 0.456 0.456 0.456 2.45v1.781h-0.262c-0.594 0-1.256-0.519-1.45-1.119-0.050-0.156-0.125-0.544-0.162-0.85-0.037-0.313-0.106-0.625-0.156-0.694-0.1-0.15-2.519-1.15-2.787-1.15-0.088 0-0.2 0.037-0.256 0.075-0.231 0.188-2.575 3.225-2.744 3.556-0.494 0.988-0.494 2.256 0.006 3.244 0.369 0.731 1.044 1.369 1.769 1.681 0.594 0.256 2.037 0.456 2.287 0.319 0.319-0.169 0.287-0.675-0.044-0.806-0.094-0.031-0.45-0.094-0.794-0.137-1.025-0.113-1.631-0.425-2.125-1.075-0.619-0.819-0.706-2.075-0.2-2.919 0.131-0.219 1.875-2.456 2.156-2.756l0.15-0.169 0.881 0.363 0.887 0.369 0.1 0.613c0.063 0.381 0.169 0.744 0.275 0.95 0.25 0.494 0.731 0.975 1.213 1.213 0.375 0.181 0.463 0.194 0.975 0.188 0.7-0.012 0.863-0.012 1.563 0 0.512 0.006 0.6-0.006 0.975-0.188 0.475-0.231 0.962-0.713 1.2-1.181 0.15-0.294 0.244-0.662 0.344-1.294l0.044-0.306 1.788-0.725 0.506 0.637c0.275 0.344 0.563 0.681 0.625 0.738 0.288 0.256 0.738 0.050 0.738-0.344 0-0.162-0.137-0.369-0.694-1.075-0.375-0.481-0.719-0.894-0.762-0.919-0.163-0.106-0.438-0.031-1.656 0.456-0.844 0.338-1.3 0.556-1.356 0.644-0.050 0.069-0.119 0.381-0.156 0.694-0.038 0.306-0.113 0.694-0.163 0.85-0.194 0.6-0.856 1.119-1.444 1.119-0.231 0-0.269-0.019-0.306-0.156-0.019-0.081-0.025-0.875-0.012-1.762 0.019-1.5 0.031-1.631 0.156-1.863 0.075-0.137 0.212-0.331 0.319-0.425 0.181-0.175 3.712-2.044 4.163-2.206 0.337-0.125 0.706-0.106 1.038 0.044 0.219 0.094 1.319 1.162 4.75 4.594 4.844 4.831 4.631 4.65 4.969 4.306 0.344-0.337 0.538-0.119-4.387-5.037-4.012-4.006-4.594-4.563-4.912-4.706-0.438-0.206-1.087-0.275-1.525-0.169-0.163 0.044-1.238 0.556-2.387 1.15-1.512 0.781-2.156 1.144-2.356 1.338l-0.275 0.262-0.275-0.262c-0.194-0.188-0.831-0.55-2.263-1.294-1.1-0.569-2.131-1.081-2.306-1.138-0.319-0.112-0.912-0.138-1.256-0.056z"></path>
      <path stroke="black" d="M3.112 13.738c-3.375 3.369-3.294 3.275-2.956 3.606 0.331 0.337 0.237 0.419 3.606-2.95 2.837-2.838 3.112-3.131 3.112-3.313 0-0.269-0.188-0.456-0.45-0.456-0.188 0-0.487 0.287-3.313 3.113z"></path>
      <path stroke="black" d="M23.563 14.425c-0.188 0.15-0.181 0.369 0.025 0.919 0.419 1.137 0.006 2.438-0.975 3.094-0.475 0.313-0.794 0.413-1.769 0.531-1.194 0.156-2.169 0.462-3.106 0.988-0.619 0.344-1.144 0.756-1.431 1.119-0.144 0.181-0.281 0.331-0.306 0.331s-0.162-0.15-0.306-0.331c-0.3-0.381-0.906-0.85-1.512-1.169-0.512-0.269-0.75-0.281-0.925-0.056-0.262 0.337-0.156 0.506 0.625 0.962 1.075 0.631 1.544 1.275 1.606 2.163 0.025 0.394 0.012 0.462-0.106 0.581-0.069 0.069-0.206 0.131-0.294 0.131s-0.606-0.238-1.15-0.525c-0.537-0.288-1.094-0.556-1.225-0.594-0.15-0.044-0.925-0.069-1.963-0.069h-1.719l-0.719 0.256c-0.394 0.144-0.912 0.313-1.156 0.375-0.944 0.262-1.987 0.219-2.994-0.125-1.163-0.394-2.188-0.419-3.319-0.081-0.656 0.2-0.844 0.337-0.844 0.619 0 0.175 0.256 0.456 0.425 0.456 0.063 0 0.35-0.075 0.644-0.169 0.45-0.144 0.644-0.169 1.306-0.169 0.719-0.006 0.825 0.006 1.387 0.194 1.631 0.544 2.831 0.512 4.537-0.106l0.856-0.313h3.294l0.975 0.512c0.537 0.288 1.063 0.55 1.169 0.594 0.313 0.119 0.719 0.094 1.075-0.075l0.331-0.15 0.331 0.15c0.356 0.169 0.762 0.194 1.075 0.075 0.106-0.044 0.631-0.306 1.169-0.594l0.975-0.512h3.3l0.762 0.281c1.756 0.65 2.981 0.688 4.619 0.144 0.569-0.194 0.675-0.206 1.394-0.2 0.663 0 0.856 0.025 1.306 0.169 0.294 0.094 0.581 0.169 0.644 0.169 0.169 0 0.425-0.281 0.425-0.456 0-0.281-0.188-0.419-0.844-0.619-1.056-0.319-2.219-0.313-3.125 0.019-0.744 0.269-1.113 0.331-1.938 0.325-0.894-0.006-1.106-0.050-2.406-0.512l-0.719-0.256h-1.719c-1.038 0-1.813 0.025-1.962 0.069-0.131 0.038-0.681 0.306-1.225 0.594-0.538 0.288-1.056 0.525-1.144 0.525-0.281 0-0.419-0.2-0.419-0.594 0-0.719 0.381-1.413 1.056-1.913 0.9-0.669 2.063-1.106 3.375-1.275 1.262-0.163 1.637-0.288 2.3-0.756 0.919-0.656 1.456-1.725 1.456-2.9 0-0.775-0.319-1.794-0.594-1.9-0.188-0.069-0.387-0.037-0.531 0.075z"></path>
    </symbol>
    <!-- Scroll TO TOP -->
   
        <symbol id="favorites-plug" viewBox="0 0 37 32">
      <path fill="#9bb537" d="M7.325 12.723h23.133v17.735H7.325V12.723z" style="fill:var(--color1, #9bb537)"/>
      <path fill="#9bb537" d="M16.578 11.373a8.289 8.289 0 1 1-16.578 0 8.289 8.289 0 1 1 16.578 0z" style="fill:var(--color1, #9bb537)"/>
      <path fill="#9bb537" d="M26.988 8.289a8.289 8.289 0 1 1-16.578 0 8.289 8.289 0 1 1 16.578 0z" style="fill:var(--color1, #9bb537)"/>
      <path fill="#9bb537" d="M37.398 11.373a8.289 8.289 0 1 1-16.578 0 8.289 8.289 0 1 1 16.578 0z" style="fill:var(--color1, #9bb537)"/>
      <path fill="#f8f8f8" d="M7.325 29.301h23.133v2.036c0 .366-.324.663-.723.663H8.048c-.399 0-.723-.297-.723-.663v-2.036zM14.265 10.36c0-.611.432-1.107.964-1.107s.964.495.964 1.107v5.112c0 .611-.432 1.107-.964 1.107s-.964-.495-.964-1.107V10.36zM17.349 10.36c0-.611.604-1.107 1.349-1.107s1.349.495 1.349 1.107v5.112c0 .611-.604 1.107-1.349 1.107s-1.349-.495-1.349-1.107V10.36zM21.205 10.36c0-.611.432-1.107.964-1.107s.964.495.964 1.107v5.112c0 .611-.432 1.107-.964 1.107s-.964-.495-.964-1.107V10.36z" style="fill:var(--color2, #f8f8f8)"/>
      <path fill="#050505" d="M28.184 3.131c.289-.03.581-.045.878-.045A8.333 8.333 0 0 1 37 8.832c-.289.03-.581.045-.878.045a8.333 8.333 0 0 1-7.938-5.746z" style="fill:var(--color3, #050505)"/>
    </symbol>
    <symbol id="heart-inactive" viewBox="0 0 32 32">
      <path fill="none" stroke="#f8f8f8" stroke-linecap="round" stroke-linejoin="round" stroke-width="2" d="M15.991 6.848C13.325 3.731 8.88 2.893 5.54 5.747s-3.81 7.625-1.187 11c2.181 2.806 8.781 8.725 10.944 10.641.242.214.363.321.504.364a.668.668 0 0 0 .381 0c.141-.042.262-.149.504-.364 2.163-1.916 8.763-7.834 10.944-10.641 2.623-3.375 2.21-8.177-1.187-11.001s-7.785-2.015-10.451 1.101z" opacity=".5" style="stroke:var(--color2, #f8f8f8)"/>
    </symbol>
    <symbol id="heart-active" viewBox="0 0 32 32">
      <path fill="#f8f8f8" d="M15.991 6.848C13.325 3.731 8.88 2.893 5.54 5.747s-3.81 7.625-1.187 11c2.181 2.806 8.781 8.725 10.944 10.641.242.214.363.321.504.364a.668.668 0 0 0 .381 0c.141-.042.262-.149.504-.364 2.163-1.916 8.763-7.834 10.944-10.641 2.623-3.375 2.21-8.177-1.187-11.001s-7.785-2.015-10.451 1.101z" style="fill:var(--color2, #f8f8f8)"/>
    </symbol>
    <symbol id="arrow-down" viewBox="0 0 32 32">
      <path fill="none" stroke-linecap="round" stroke-linejoin="round" stroke-width="2" d="m8 12 8 8 8-8"/>
    </symbol>
    <symbol id="burger-menu" viewBox="0 0 32 32">
      <path stroke-linecap="round" stroke-linejoin="round" stroke-width="2" d="M28 13.333H4M28 8H4M28 18.667H4M28 24H4"/>
    </symbol>
    <symbol id="cart" viewBox="0 0 32 32">
      <path stroke-linecap="round" stroke-linejoin="round" stroke-width="2.667" d="M12 29.333a1.333 1.333 0 1 0 0-2.667 1.333 1.333 0 0 0 0 2.667zM26.667 29.333a1.333 1.333 0 1 0 0-2.667 1.333 1.333 0 0 0 0 2.667z"/>
      <path fill="none" stroke-linecap="round" stroke-linejoin="round" stroke-width="1.8" d="M1.333 1.333h5.333l3.573 17.853a2.671 2.671 0 0 0 2.666 2.147h12.96a2.667 2.667 0 0 0 2.666-2.147l2.133-11.187H7.997"/>
    </symbol>
    <symbol id="arrow-left" viewBox="0 0 32 32">
      <path d="M14.133 16.947a1.334 1.334 0 0 1 0-1.894l6.12-6.107a1.334 1.334 0 1 0-1.88-1.894l-6.12 6.12a4.001 4.001 0 0 0 0 5.654l6.12 6.12a1.336 1.336 0 0 0 1.88-1.894l-6.12-6.107z"/>
    </symbol>
    <symbol id="arrow-right" viewBox="0 0 32 32">
      <path d="M17.867 16.947a1.334 1.334 0 0 0 0-1.894l-6.12-6.107a1.334 1.334 0 1 1 1.88-1.894l6.12 6.12a4.001 4.001 0 0 1 0 5.654l-6.12 6.12a1.337 1.337 0 0 1-2.172-.434 1.331 1.331 0 0 1 .292-1.46l6.12-6.107z"/>
    </symbol>
    <symbol id="search" viewBox="0 0 32 32">
      <path d="M28.947 27.054 24 22.147a11.999 11.999 0 0 0-1.353-16.445 12 12 0 1 0-.5 18.298l4.907 4.907a1.334 1.334 0 0 0 1.894 0 1.336 1.336 0 0 0 0-1.854zm-14.28-3.053a9.33 9.33 0 0 1-8.623-5.762A9.339 9.339 0 0 1 8.067 8.067a9.331 9.331 0 0 1 14.36 1.415 9.33 9.33 0 0 1-1.161 11.785 9.332 9.332 0 0 1-6.6 2.734z"/>
    </symbol>
    <symbol id="star" viewBox="0 0 32 32">
      <path d="M13.826 3.262c.684-2.106 3.663-2.106 4.348 0l1.932 5.945a2.285 2.285 0 0 0 2.174 1.579h6.251c2.214 0 3.135 2.833 1.344 4.135l-5.057 3.674a2.286 2.286 0 0 0-.83 2.556l1.931 5.945c.684 2.106-1.726 3.857-3.517 2.555l-5.057-3.674a2.286 2.286 0 0 0-2.687 0l-5.057 3.674c-1.791 1.302-4.202-.45-3.517-2.555l1.932-5.945a2.287 2.287 0 0 0-.83-2.556l-5.057-3.674c-1.791-1.302-.871-4.135 1.344-4.135h6.251c.99 0 1.868-.638 2.174-1.579l1.932-5.945z"/>
    </symbol>
    <symbol id="x" viewBox="0 0 32 32">
      <path stroke-linecap="round" stroke-linejoin="round" stroke-width="2" d="M24 8 8 24M8 8l16 16"/>
    </symbol>
  </defs>
</svg>